<?xml version="1.0" encoding="UTF-8"?>
<svg width="217px" height="40px" viewBox="0 0 217 40" version="1.1" xmlns="http://www.w3.org/2000/svg" xmlns:xlink="http://www.w3.org/1999/xlink">
    <title>hawaiiexpress-logo</title>
    <defs>
        <polygon id="path-1" points="185.038753 0.284658228 199.038856 0.284658228 199.038856 24 185.038753 24"></polygon>
    </defs>
    <g id="Page-1" stroke="none" stroke-width="1" fill="none" fill-rule="evenodd">
        <g id="hawaiiexpress-logo">
            <rect id="taust" x="0" y="0" width="217" height="40"></rect>
            <g id="logo" transform="translate(10.000000, 7.000000)">
                <polygon id="Fill-1" fill="#FFDC00" points="7.95362319 1 7.95362319 9.60678527 5.0457971 9.60678527 5.0457971 1 0 1 0 24 5.0457971 24 5.0457971 14.2125653 7.95362319 14.2125653 7.95362319 24 13 24 13 1"></polygon>
                <path d="M15,24 L20.0924247,24 L20.6183094,19.9122401 L24.1883592,19.9122401 L24.6592571,24 L30,24 L25.8487862,1 L19.0959345,1 L15,24 Z M22.4445744,4.56967885 L22.5001462,4.56967885 L23.6902603,15.8247844 L21.1441942,15.8247844 L22.4445744,4.56967885 Z" id="Fill-2" fill="#FFDC00"></path>
                <polygon id="Fill-3" fill="#FFDC00" points="33.8954884 24 39.7673265 24 41.5145298 9.83749537 41.5717407 9.83749537 43.1185544 24 48.9903925 24 53 1 47.7008765 1 45.8107973 17.3507354 45.7538891 17.3507354 44.149259 1 39.0226764 1 37.3323814 17.3507354 37.2751704 17.3507354 35.4141507 1 30 1"></polygon>
                <path d="M53,24 L58.0920329,24 L58.6184924,19.9122401 L62.1884725,19.9122401 L62.6581913,24 L68,24 L63.8485747,1 L57.0961471,1 L53,24 Z M60.4450142,4.56967885 L60.5,4.56967885 L61.6903833,15.8247844 L59.1440744,15.8247844 L60.4450142,4.56967885 Z" id="Fill-4" fill="#FFDC00"></path>
                <polygon id="Fill-5" fill="#FFDC00" points="70 24 75 24 75 1 70 1"></polygon>
                <polygon id="Fill-6" fill="#FFDC00" points="78 24 83 24 83 1 78 1"></polygon>
                <polygon id="Fill-7" fill="#FFDC00" points="93 24 105 24 105 19.5672583 98.2822575 19.5672583 98.2822575 14.4433363 103.938026 14.4433363 103.938026 10.0102905 98.2822575 10.0102905 98.2822575 5.43304587 104.741789 5.43304587 104.741789 1 93 1"></polygon>
                <polygon id="Fill-8" fill="#FFDC00" points="107 24 112.345164 24 114.360248 16.5731575 114.415558 16.5731575 116.599231 24 122 24 117.635019 11.7662293 121.748004 1 116.402839 1 114.611949 7.53457489 114.556049 7.53457489 112.792369 1 107.251405 1 111.338361 11.59313"></polygon>
                <path d="M128.31262,4.74 L128.915393,4.74 C130.693998,4.74 131.583301,4.74 131.583301,7.52855696 C131.583301,9.59832911 131.326182,10.4316456 129.632172,10.4316456 L128.31262,10.4316456 L128.31262,4.74 Z M123.033201,23.6261772 L128.31262,23.6261772 L128.31262,14.5137722 L131.296771,14.5137722 C136.028904,14.5137722 136.863326,11.0064304 136.863326,7.6436962 C136.863326,1.63518987 134.481645,0.657873418 128.685563,0.657873418 L123.033201,0.657873418 L123.033201,23.6261772 Z" id="Fill-9" fill="#FFDC00"></path>
                <path d="M138.985827,23.6261772 L144.264034,23.6261772 L144.264034,13.7087089 L145.240053,13.7087089 C146.732432,13.7087089 147.248185,14.2834937 147.248185,15.6059241 L147.248185,19.2849114 C147.248185,20.8087595 147.248185,22.8785316 147.850352,23.6261772 L153.072465,23.6261772 C152.469692,22.8785316 152.526998,20.8087595 152.526998,19.2849114 L152.526998,15.2319494 C152.526998,13.3058734 151.322968,11.9551899 149.457039,11.5818228 L149.457039,11.5241013 C152.269576,10.6616203 152.642519,8.90810127 152.642519,6.20643038 C152.642519,2.06658228 150.664101,0.657873418 145.957135,0.657873418 L138.985827,0.657873418 L138.985827,23.6261772 Z M144.264034,4.56744304 L145.297965,4.56744304 C147.363706,4.56744304 147.363706,5.48734177 147.363706,7.09686076 C147.363706,8.5921519 147.363706,9.79913924 145.55569,9.79913924 L144.264034,9.79913924 L144.264034,4.56744304 Z" id="Fill-11" fill="#FFDC00"></path>
                <polygon id="Fill-13" fill="#FFDC00" points="154.937878 23.6261772 166.931182 23.6261772 166.931182 19.1995443 160.217903 19.1995443 160.217903 14.0826835 165.868749 14.0826835 165.868749 9.65574684 160.217903 9.65574684 160.217903 5.08481013 166.671638 5.08481013 166.671638 0.657873418 154.937878 0.657873418"></polygon>
                <path d="M169.086672,15.8357468 L169.086672,18.3083544 C169.086672,20.6940759 170.69336,24 175.914867,24 C181.422903,24 183.087503,20.3486582 183.087503,18.1354937 C183.087503,13.5077468 180.648818,12.3867342 178.697386,10.6617722 C176.544928,9.05194937 174.308179,7.47098734 174.308179,6.09083544 C174.308179,5.02724051 174.99494,4.36648101 176.116195,4.36648101 C177.607968,4.36648101 177.778369,5.74602532 177.778369,6.89620253 L177.778369,8.13205063 L182.713043,8.13205063 L182.713043,6.06227848 C182.713043,2.52698734 180.705518,0.284658228 176.116195,0.284658228 C171.89739,0.284658228 169.372595,2.21073418 169.372595,6.72303797 C169.372595,10.2303797 171.496855,11.4950886 173.619296,13.2486076 C175.713841,14.7724557 177.80869,16.1231392 177.80869,18.1354937 C177.80869,19.1416709 177.176203,19.9178734 175.972172,19.9178734 C174.479794,19.9178734 174.192051,18.768 174.192051,17.5318481 L174.192051,15.8357468 L169.086672,15.8357468 Z" id="Fill-15" fill="#FFDC00"></path>
                <mask id="mask-2" fill="white">
                    <use xlink:href="#path-1"></use>
                </mask>
                <g id="Clip-18"></g>
                <path d="M185.038753,15.8357468 L185.038753,18.3083544 C185.038753,20.6940759 186.64544,24 191.86725,24 C197.37559,24 199.038977,20.3486582 199.038977,18.1354937 C199.038977,13.5077468 196.600899,12.3867342 194.649467,10.6617722 C192.498222,9.05194937 190.260866,7.47098734 190.260866,6.09083544 C190.260866,5.02724051 190.948234,4.36648101 192.067669,4.36648101 C193.559442,4.36648101 193.731056,5.74602532 193.731056,6.89620253 L193.731056,8.13205063 L198.66573,8.13205063 L198.66573,6.06227848 C198.66573,2.52698734 196.658205,0.284658228 192.067669,0.284658228 C187.850987,0.284658228 185.325282,2.21073418 185.325282,6.72303797 C185.325282,10.2303797 187.448329,11.4950886 189.571376,13.2486076 C191.665012,14.7724557 193.760771,16.1231392 193.760771,18.1354937 C193.760771,19.1416709 193.129496,19.9178734 191.924253,19.9178734 C190.431874,19.9178734 190.145951,18.768 190.145951,17.5318481 L190.145951,15.8357468 L185.038753,15.8357468 Z" id="Fill-17" fill="#FFDC00" mask="url(#mask-2)"></path>
            </g>
        </g>
    </g>
</svg>